<?xml version="1.0" encoding="UTF-8"?>
<svg id="Layer_2" data-name="Layer 2" xmlns="http://www.w3.org/2000/svg" viewBox="0 0 32 32">
  <path d="M27.643,14.727c.878-.857,1.428-2.049,1.428-3.37,0-2.588-2.098-4.693-4.683-4.711.013-.132.04-.261.04-.396,0-2.343-1.906-4.25-4.25-4.25h-.929c-1.311,0-2.47.609-3.25,1.544-.78-.935-1.939-1.544-3.25-1.544h-.929c-2.344,0-4.25,1.907-4.25,4.25,0,.136.028.264.04.396-2.585.017-4.683,2.122-4.683,4.711,0,1.321.55,2.513,1.428,3.37-1.402.818-2.357,2.322-2.357,4.059v1.857c0,2.274,1.618,4.176,3.763,4.617-.019.163-.049.322-.049.49,0,2.343,1.906,4.25,4.25,4.25h2.786c1.311,0,2.47-.609,3.25-1.544.78.935,1.939,1.544,3.25,1.544h2.786c2.344,0,4.25-1.907,4.25-4.25,0-.168-.031-.327-.049-.49,2.145-.441,3.763-2.344,3.763-4.617v-1.857c0-1.737-.955-3.241-2.357-4.059ZM12.75,28h-2.786c-1.24,0-2.25-1.009-2.25-2.25s1.01-2.25,2.25-2.25h1.394c.553,0,1-.448,1-1s-.447-1-1-1h-1.394c-1.445,0-2.72.728-3.488,1.833-1.383-.123-2.476-1.275-2.476-2.69v-1.857c0-1.497,1.218-2.714,2.714-2.714h2.786c.553,0,1-.448,1-1s-.447-1-1-1h-1.857c-1.496,0-2.714-1.218-2.714-2.714s1.218-2.714,2.714-2.714h.671c.766,1.119,2.052,1.857,3.508,1.857h.465c.553,0,1-.448,1-1s-.447-1-1-1h-.465c-1.24,0-2.25-1.009-2.25-2.25s1.01-2.25,2.25-2.25h.929c1.24,0,2.25,1.009,2.25,2.25v19.5c0,1.241-1.01,2.25-2.25,2.25ZM28,20.643c0,1.415-1.093,2.567-2.476,2.69-.768-1.105-2.043-1.833-3.488-1.833h-1.394c-.553,0-1,.448-1,1s.447,1,1,1h1.394c1.24,0,2.25,1.009,2.25,2.25s-1.01,2.25-2.25,2.25h-2.786c-1.24,0-2.25-1.009-2.25-2.25V6.25c0-1.241,1.01-2.25,2.25-2.25h.929c1.24,0,2.25,1.009,2.25,2.25s-1.01,2.25-2.25,2.25h-.465c-.553,0-1,.448-1,1s.447,1,1,1h.465c1.456,0,2.742-.737,3.508-1.857h.671c1.496,0,2.714,1.217,2.714,2.714s-1.218,2.714-2.714,2.714h-1.857c-.553,0-1,.448-1,1s.447,1,1,1h2.786c1.496,0,2.714,1.218,2.714,2.714v1.857Z"/>
</svg>