<?xml version="1.0" encoding="UTF-8"?>
<svg id="Layer_3" data-name="Layer 3" xmlns="http://www.w3.org/2000/svg" viewBox="0 0 42 42">
  <path d="M26.015,35.141c-.289.104-.583.198-.88.282-.531.151-.839.705-.688,1.236.126.439.526.726.961.726.091,0,.184-.013.275-.038.34-.098.675-.204,1.007-.323.52-.187.79-.759.604-1.279s-.757-.792-1.279-.604Z"/>
  <path d="M35.255,16.318c.097.294.184.59.262.891.118.449.523.746.967.746.084,0,.17-.011.255-.032.534-.141.854-.688.714-1.222-.09-.34-.188-.677-.299-1.01-.173-.524-.741-.814-1.263-.636-.524.173-.81.738-.636,1.263Z"/>
  <path d="M30.086,32.937c-.248.188-.5.369-.758.542-.459.307-.583.928-.275,1.387.192.289.51.444.832.444.191,0,.385-.055.555-.169.291-.194.576-.398.855-.61.44-.334.526-.962.192-1.401-.335-.44-.961-.525-1.401-.192Z"/>
  <path d="M36.58,24.797c-.53-.161-1.088.131-1.253.657-.092.297-.192.589-.303.877-.196.517.062,1.095.578,1.291.117.045.238.065.356.065.402,0,.782-.245.935-.644.124-.327.238-.658.344-.994.164-.527-.13-1.088-.657-1.253Z"/>
  <path d="M37.999,20.851c-.013-.545-.458-.978-1-.978h-.022c-.553.013-.99.471-.978,1.022v.104c0,.271-.006.541-.021.809-.03.552.392,1.023.943,1.053.019.002.037.002.056.002.527,0,.969-.412.997-.945.017-.305.025-.61.025-.918v-.149Z"/>
  <path d="M33.289,29.604c-.177.253-.362.501-.556.742-.345.431-.274,1.061.157,1.405.184.147.404.219.623.219.294,0,.585-.129.782-.376.219-.274.43-.556.632-.844.316-.452.207-1.075-.246-1.393-.45-.316-1.076-.207-1.393.246Z"/>
  <path d="M33.663,12.955c.19.299.514.462.844.462.185,0,.371-.051.537-.157.466-.298.602-.916.305-1.381-.095-.149-.192-.296-.292-.441-.311-.456-.932-.577-1.389-.264-.457.311-.575.933-.264,1.389.088.13.174.261.259.393Z"/>
  <path d="M33,10v-5c0-.553-.447-1-1-1s-1,.447-1,1v2.271c-2.893-2.112-6.367-3.271-10-3.271-9.374,0-17,7.626-17,17s7.626,17,17,17c.177,0,.354-.003.529-.008.552-.017.986-.478.971-1.029-.017-.553-.515-.971-1.029-.971-.156.005-.313.008-.471.008-8.271,0-15-6.729-15-15s6.729-15,15-15c3.272,0,6.4,1.061,8.984,3h-2.984c-.553,0-1,.447-1,1s.447,1,1,1h5c.553,0,1-.447,1-1Z"/>
  <path d="M27,20h-5v-10c0-.553-.447-1-1-1s-1,.447-1,1v11c0,.553.447,1,1,1h6c.553,0,1-.447,1-1s-.447-1-1-1Z"/>
</svg>