<?xml version="1.0" encoding="UTF-8"?>
<svg id="Layer_2" data-name="Layer 2" xmlns="http://www.w3.org/2000/svg" viewBox="0 0 32 32">
  <defs>
    <style>
      .cls-1 {
        stroke-width: 0px;
      }
    </style>
  </defs>
  <path class="cls-1" d="m29.615,8.212c-.244-.189-.561-.259-.857-.182l-12,3c-.445.111-.757.511-.757.97v11.556c-.591-.344-1.268-.556-2-.556-2.206,0-4,1.794-4,4s1.794,4,4,4,4-1.794,4-4v-14.219l10-2.5v10.275c-.591-.344-1.268-.556-2-.556-2.206,0-4,1.794-4,4s1.794,4,4,4,4-1.794,4-4v-15c0-.308-.142-.599-.385-.788Zm-15.615,20.788c-1.103,0-2-.897-2-2s.897-2,2-2,2,.897,2,2-.897,2-2,2Zm12-3c-1.103,0-2-.897-2-2s.897-2,2-2,2,.897,2,2-.897,2-2,2Z"/>
  <path class="cls-1" d="m10,7.767l3.485,2.091c.309.186.694.19,1.007.013.313-.178.507-.51.507-.87v-4c0-.352-.184-.677-.485-.857l-5-3c-.309-.186-.694-.19-1.007-.013s-.507.51-.507.87v14.556c-.591-.344-1.268-.556-2-.556-2.206,0-4,1.794-4,4s1.794,4,4,4,4-1.794,4-4V7.767Zm0-4l3,1.8v1.667l-3-1.8v-1.667Zm-4,18.233c-1.103,0-2-.897-2-2s.897-2,2-2,2,.897,2,2-.897,2-2,2Z"/>
</svg>