<?xml version="1.0" encoding="UTF-8"?>
<svg id="Layer_3" data-name="Layer 3" xmlns="http://www.w3.org/2000/svg" viewBox="0 0 42 42">
  <path d="M9.999,40c-.15,0-.303-.034-.446-.105-.494-.247-.694-.848-.447-1.342l2-4c.248-.494.849-.694,1.342-.447s.694.848.447,1.342l-2,4c-.176.351-.528.553-.896.553Z"/>
  <path d="M32.001,40c-.367,0-.72-.202-.896-.553l-2-4c-.247-.494-.047-1.095.447-1.342.494-.247,1.094-.047,1.342.447l2,4c.247.494.047,1.095-.447,1.342-.144.072-.296.105-.446.105Z"/>
  <circle cx="21" cy="35" r="1"/>
  <g>
    <path d="M22,9.051v-3.051h2c.553,0,1-.448,1-1s-.447-1-1-1h-6c-.553,0-1,.448-1,1s.447,1,1,1h2v3.051c-7.805.518-14,7.016-14,14.949,0,8.271,6.729,15,15,15s15-6.729,15-15c0-7.933-6.195-14.431-14-14.949ZM21,37c-7.168,0-13-5.832-13-13s5.832-13,13-13,13,5.832,13,13-5.832,13-13,13Z"/>
    <path d="M6.713,15.475l6.529-6.53c.391-.39.391-1.023,0-1.414l-.653-.654c-1.062-1.061-2.472-1.646-3.973-1.646s-2.911.584-3.972,1.646c-1.062,1.061-1.646,2.472-1.646,3.972s.584,2.911,1.646,3.973l.653.653c.195.195.451.292.707.292s.512-.098.707-.293ZM5,10.85c0-.966.376-1.875,1.06-2.558.684-.683,1.592-1.06,2.558-1.06.941,0,1.827.357,2.504,1.006l-5.115,5.115c-.649-.677-1.006-1.562-1.006-2.503Z"/>
    <path d="M37.354,6.877c-1.061-1.061-2.472-1.646-3.972-1.646s-2.911.584-3.974,1.646l-.652.653c-.39.391-.39,1.023,0,1.414l6.529,6.53c.195.195.451.293.707.293s.512-.098.707-.292l.653-.653c1.062-1.061,1.646-2.472,1.646-3.972s-.584-2.911-1.646-3.972ZM35.994,13.353l-5.115-5.115c1.372-1.315,3.713-1.294,5.062.054.684.684,1.06,1.592,1.06,2.558,0,.941-.356,1.827-1.006,2.503Z"/>
    <path d="M22,23.5v-6.5c0-.552-.447-1-1-1s-1,.448-1,1v7c0,.315.148.611.4.8l4,3c.18.135.39.2.599.2.305,0,.604-.138.801-.4.332-.442.242-1.069-.2-1.4l-3.6-2.7Z"/>
    <circle cx="21" cy="13" r="1"/>
    <circle cx="10" cy="24" r="1"/>
    <circle cx="32" cy="24" r="1"/>
  </g>
</svg>